<svg width="16" height="16" viewBox="0 0 16 16" fill="none" xmlns="http://www.w3.org/2000/svg">
<path fill-rule="evenodd" clip-rule="evenodd" d="M3.64601 1.64601C3.69245 1.59945 3.74763 1.5625 3.80838 1.5373C3.86912 1.51209 3.93424 1.49911 4.00001 1.49911C4.06578 1.49911 4.1309 1.51209 4.19164 1.5373C4.25239 1.5625 4.30756 1.59945 4.35401 1.64601L10.354 7.64601C10.4006 7.69245 10.4375 7.74763 10.4627 7.80838C10.4879 7.86912 10.5009 7.93424 10.5009 8.00001C10.5009 8.06578 10.4879 8.1309 10.4627 8.19164C10.4375 8.25239 10.4006 8.30756 10.354 8.35401L4.35401 14.354C4.26012 14.4479 4.13278 14.5006 4.00001 14.5006C3.86723 14.5006 3.7399 14.4479 3.64601 14.354C3.55212 14.2601 3.49938 14.1328 3.49938 14C3.49938 13.8672 3.55212 13.7399 3.64601 13.646L9.29301 8.00001L3.64601 2.35401C3.59945 2.30756 3.5625 2.25239 3.5373 2.19164C3.51209 2.1309 3.49911 2.06578 3.49911 2.00001C3.49911 1.93424 3.51209 1.86912 3.5373 1.80838C3.5625 1.74763 3.59945 1.69245 3.64601 1.64601Z" fill="white"/>
<path fill-rule="evenodd" clip-rule="evenodd" d="M7.64601 1.64601C7.69245 1.59945 7.74763 1.5625 7.80837 1.5373C7.86912 1.51209 7.93424 1.49911 8.00001 1.49911C8.06578 1.49911 8.1309 1.51209 8.19164 1.5373C8.25239 1.5625 8.30756 1.59945 8.35401 1.64601L14.354 7.64601C14.4006 7.69245 14.4375 7.74763 14.4627 7.80838C14.4879 7.86912 14.5009 7.93424 14.5009 8.00001C14.5009 8.06578 14.4879 8.1309 14.4627 8.19164C14.4375 8.25239 14.4006 8.30756 14.354 8.35401L8.35401 14.354C8.26012 14.4479 8.13278 14.5006 8.00001 14.5006C7.86723 14.5006 7.7399 14.4479 7.64601 14.354C7.55212 14.2601 7.49938 14.1328 7.49938 14C7.49938 13.8672 7.55212 13.7399 7.64601 13.646L13.293 8.00001L7.64601 2.35401C7.59945 2.30756 7.5625 2.25239 7.5373 2.19164C7.51209 2.1309 7.49911 2.06578 7.49911 2.00001C7.49911 1.93424 7.51209 1.86912 7.5373 1.80838C7.5625 1.74763 7.59945 1.69245 7.64601 1.64601Z" fill="white"/>
</svg>
