<svg width="16" height="16" viewBox="0 0 16 16" fill="none" xmlns="http://www.w3.org/2000/svg">
<path d="M12.8541 0.145996C12.7603 0.052261 12.6331 -0.000396729 12.5006 -0.000396729C12.368 -0.000396729 12.2408 0.052261 12.1471 0.145996L10.5001 1.793L14.2071 5.5L15.8541 3.854C15.9006 3.80755 15.9376 3.75238 15.9628 3.69163C15.988 3.63088 16.0009 3.56576 16.0009 3.5C16.0009 3.43423 15.988 3.36911 15.9628 3.30836C15.9376 3.24762 15.9006 3.19244 15.8541 3.146L12.8541 0.145996ZM13.5001 6.207L9.79305 2.5L3.29305 9H3.50005C3.63266 9 3.75984 9.05267 3.8536 9.14644C3.94737 9.24021 4.00005 9.36739 4.00005 9.5V10H4.50005C4.63266 10 4.75984 10.0527 4.8536 10.1464C4.94737 10.2402 5.00005 10.3674 5.00005 10.5V11H5.50005C5.63266 11 5.75984 11.0527 5.8536 11.1464C5.94737 11.2402 6.00005 11.3674 6.00005 11.5V12H6.50005C6.63266 12 6.75984 12.0527 6.8536 12.1464C6.94737 12.2402 7.00005 12.3674 7.00005 12.5V12.707L13.5001 6.207ZM6.03205 13.675C6.01101 13.619 6.00017 13.5598 6.00005 13.5V13H5.50005C5.36744 13 5.24026 12.9473 5.1465 12.8535C5.05273 12.7598 5.00005 12.6326 5.00005 12.5V12H4.50005C4.36744 12 4.24026 11.9473 4.1465 11.8535C4.05273 11.7598 4.00005 11.6326 4.00005 11.5V11H3.50005C3.36744 11 3.24027 10.9473 3.1465 10.8535C3.05273 10.7598 3.00005 10.6326 3.00005 10.5V10H2.50005C2.44027 9.9999 2.381 9.98906 2.32505 9.968L2.14605 10.146C2.0984 10.194 2.06098 10.2511 2.03605 10.314L0.0360502 15.314C-0.000320453 15.4049 -0.00922396 15.5044 0.0104435 15.6003C0.030111 15.6962 0.0774845 15.7841 0.146691 15.8534C0.215897 15.9226 0.303893 15.9699 0.39977 15.9896C0.495646 16.0093 0.595186 16.0004 0.68605 15.964L5.68605 13.964C5.74891 13.9391 5.80607 13.9016 5.85405 13.854L6.03205 13.675Z" fill="white"/>
</svg>
