<svg width="16" height="16" viewBox="0 0 16 16" fill="none" xmlns="http://www.w3.org/2000/svg">
<path fill-rule="evenodd" clip-rule="evenodd" d="M10.082 5.629L9.66399 7H8.59799L10.387 1.668H11.621L13.402 7H12.282L11.863 5.629H10.082ZM11.652 4.844L11 2.687H10.953L10.301 4.844H11.652Z" fill="white"/>
<path d="M12.96 14H9.02799V13.309L11.607 9.589V9.535H9.09799V8.668H12.883V9.359L10.316 13.079V13.133H12.961V14H12.96ZM4.49999 13.5C4.49999 13.6326 4.44731 13.7598 4.35354 13.8536C4.25978 13.9473 4.1326 14 3.99999 14C3.86738 14 3.74021 13.9473 3.64644 13.8536C3.55267 13.7598 3.49999 13.6326 3.49999 13.5V3.707L2.35399 4.854C2.3075 4.90049 2.25231 4.93736 2.19157 4.96252C2.13083 4.98768 2.06573 5.00063 1.99999 5.00063C1.93425 5.00063 1.86915 4.98768 1.80841 4.96252C1.74767 4.93736 1.69248 4.90049 1.64599 4.854C1.5995 4.80751 1.56263 4.75232 1.53747 4.69158C1.51231 4.63084 1.49936 4.56574 1.49936 4.5C1.49936 4.43425 1.51231 4.36915 1.53747 4.30841C1.56263 4.24767 1.5995 4.19249 1.64599 4.146L3.64599 2.147L3.65299 2.14C3.74699 2.0487 3.87319 1.99813 4.00422 1.99926C4.13526 2.00038 4.26057 2.0531 4.35299 2.146L6.35299 4.146C6.39948 4.19242 6.43637 4.24754 6.46155 4.30822C6.48674 4.3689 6.49972 4.43395 6.49977 4.49964C6.49982 4.56534 6.48692 4.6304 6.46182 4.69112C6.43672 4.75183 6.39991 4.80701 6.35349 4.8535C6.30707 4.89999 6.25194 4.93687 6.19127 4.96206C6.13059 4.98724 6.06554 5.00023 5.99984 5.00028C5.93415 5.00032 5.86908 4.98743 5.80837 4.96233C5.74766 4.93723 5.69248 4.90042 5.64599 4.854L4.49999 3.707V13.5Z" fill="white"/>
</svg>
