<svg width="16" height="16" viewBox="0 0 16 16" fill="none" xmlns="http://www.w3.org/2000/svg">
<path fill-rule="evenodd" clip-rule="evenodd" d="M10.082 5.629L9.66399 7H8.59799L10.387 1.668H11.621L13.402 7H12.282L11.863 5.629H10.082ZM11.652 4.844L11 2.687H10.953L10.301 4.844H11.652Z" fill="white"/>
<path d="M12.96 14H9.02799V13.309L11.607 9.589V9.535H9.09799V8.668H12.883V9.359L10.316 13.079V13.133H12.961V14H12.96ZM4.49999 2.5C4.49999 2.36739 4.44731 2.24021 4.35354 2.14645C4.25978 2.05268 4.1326 2 3.99999 2C3.86738 2 3.74021 2.05268 3.64644 2.14645C3.55267 2.24021 3.49999 2.36739 3.49999 2.5V12.293L2.35399 11.146C2.3075 11.0995 2.25231 11.0626 2.19157 11.0375C2.13083 11.0123 2.06573 10.9994 1.99999 10.9994C1.93425 10.9994 1.86915 11.0123 1.80841 11.0375C1.74767 11.0626 1.69248 11.0995 1.64599 11.146C1.5995 11.1925 1.56263 11.2477 1.53747 11.3084C1.51231 11.3692 1.49936 11.4343 1.49936 11.5C1.49936 11.5657 1.51231 11.6308 1.53747 11.6916C1.56263 11.7523 1.5995 11.8075 1.64599 11.854L3.64599 13.853L3.65299 13.86C3.74687 13.9515 3.87311 14.0023 4.00423 14.0011C4.13534 14 4.2607 13.9471 4.35299 13.854L6.35299 11.854C6.44688 11.7602 6.49967 11.633 6.49977 11.5004C6.49986 11.3677 6.44724 11.2404 6.35349 11.1465C6.25974 11.0526 6.13253 10.9998 5.99984 10.9997C5.86716 10.9996 5.73988 11.0522 5.64599 11.146L4.49999 12.293V2.5Z" fill="white"/>
</svg>
