<svg width="16" height="16" viewBox="0 0 16 16" fill="none" xmlns="http://www.w3.org/2000/svg">
<g clip-path="url(#clip0_79_61)">
<path fill-rule="evenodd" clip-rule="evenodd" d="M1.88501 0.510994C2.05999 0.336283 2.27009 0.200753 2.50141 0.113384C2.73273 0.026016 2.97997 -0.011195 3.22675 0.00421719C3.47354 0.0196294 3.71423 0.0873129 3.93288 0.202782C4.15152 0.318252 4.34314 0.47887 4.49501 0.673994L6.29001 2.97999C6.61901 3.40299 6.73501 3.95399 6.60501 4.47399L6.05801 6.66399C6.02973 6.77742 6.03126 6.89624 6.06245 7.0089C6.09364 7.12157 6.15343 7.22426 6.23601 7.30699L8.69301 9.76399C8.77585 9.84675 8.87871 9.90664 8.99156 9.93783C9.10442 9.96902 9.22344 9.97046 9.33701 9.94199L11.526 9.39499C11.7826 9.33083 12.0505 9.32585 12.3093 9.38042C12.5681 9.43499 12.8111 9.54769 13.02 9.70999L15.326 11.504C16.155 12.149 16.231 13.374 15.489 14.115L14.455 15.149C13.715 15.889 12.609 16.214 11.578 15.851C8.9392 14.9225 6.54329 13.4118 4.56801 11.431C2.5873 9.45601 1.07662 7.06045 0.148013 4.42199C-0.213987 3.39199 0.111013 2.28499 0.851013 1.54499L1.88501 0.510994ZM12.5 0.999994C12.6326 0.999994 12.7598 1.05267 12.8536 1.14644C12.9473 1.24021 13 1.36739 13 1.49999V2.99999H14.5C14.6326 2.99999 14.7598 3.05267 14.8536 3.14644C14.9473 3.24021 15 3.36739 15 3.49999C15 3.6326 14.9473 3.75978 14.8536 3.85355C14.7598 3.94732 14.6326 3.99999 14.5 3.99999H13V5.49999C13 5.6326 12.9473 5.75978 12.8536 5.85355C12.7598 5.94732 12.6326 5.99999 12.5 5.99999C12.3674 5.99999 12.2402 5.94732 12.1465 5.85355C12.0527 5.75978 12 5.6326 12 5.49999V3.99999H10.5C10.3674 3.99999 10.2402 3.94732 10.1465 3.85355C10.0527 3.75978 10 3.6326 10 3.49999C10 3.36739 10.0527 3.24021 10.1465 3.14644C10.2402 3.05267 10.3674 2.99999 10.5 2.99999H12V1.49999C12 1.36739 12.0527 1.24021 12.1465 1.14644C12.2402 1.05267 12.3674 0.999994 12.5 0.999994Z" fill="white"/>
</g>
<defs>
<clipPath id="clip0_79_61">
<rect width="16" height="16" fill="white"/>
</clipPath>
</defs>
</svg>
